<svg width="24" height="24" viewBox="0 0 24 24" fill="none" xmlns="http://www.w3.org/2000/svg">
<g id="chevron-down">
<path id="Vector" d="M11.9981 14.4999L11.9973 14.4999C11.9315 14.5003 11.8663 14.4877 11.8053 14.4628C11.7447 14.4381 11.6895 14.4016 11.6429 14.3555C11.6427 14.3553 11.6425 14.3551 11.6423 14.3549L7.64374 10.3564C7.5492 10.2619 7.49609 10.1336 7.49609 9.99994C7.49609 9.86625 7.5492 9.73803 7.64374 9.64349C7.73827 9.54896 7.86649 9.49585 8.00019 9.49585C8.13378 9.49585 8.2619 9.54888 8.35641 9.64328C8.35649 9.64335 8.35656 9.64342 8.35663 9.64349L11.6461 12.943L11.9996 13.2976L12.3537 12.9435L15.6277 9.66949C15.7215 9.59425 15.8394 9.5552 15.9599 9.55986C16.0858 9.56472 16.2051 9.61688 16.2942 9.70593C16.3832 9.79498 16.4354 9.91435 16.4403 10.0402C16.4449 10.1607 16.4059 10.2786 16.3306 10.3724L12.3481 14.3549C12.3479 14.3552 12.3477 14.3554 12.3475 14.3556C12.2544 14.4476 12.129 14.4994 11.9981 14.4999Z" fill="#A098AE" stroke="#A098AE"/>
</g>
</svg>
