<svg width="56" height="56" viewBox="0 0 56 56" fill="none" xmlns="http://www.w3.org/2000/svg">
<g id="dummy logo">
<rect id="bg" width="56" height="56" rx="8" fill="#5D5FEF"/>
<g id="dummy">
<path id="Vector" d="M22.3743 17.6274C21.2422 18.7804 21.2422 20.6463 22.3952 21.7994L24.911 24.3151C27.28 26.6842 27.28 30.5417 24.911 32.9107L20.2988 28.2985C19.1143 27.1139 18.5168 25.5521 18.5168 24.0007C18.5168 22.4493 19.1143 20.8874 20.2988 19.7029L22.3428 17.6588C22.3533 17.6483 22.3638 17.6379 22.3743 17.6274Z" fill="#5D5FEF" stroke="white" stroke-width="2" stroke-miterlimit="10"/>
<g id="Vector_2">
<path d="M24.3867 23.7899L22.3951 21.7983C21.242 20.6452 21.2315 18.7898 22.3741 17.6263C23.5062 16.5151 25.3092 16.5361 26.4308 17.6577C26.9968 18.2238 27.2799 18.968 27.2799 19.7018C27.2799 20.4356 26.9968 21.1798 26.4308 21.7459L25.9591 22.2176" fill="#5D5FEF"/>
<path d="M24.3867 23.7899L22.3951 21.7983C21.242 20.6452 21.2315 18.7898 22.3741 17.6263C23.5062 16.5151 25.3092 16.5361 26.4308 17.6577C26.9968 18.2238 27.2799 18.968 27.2799 19.7018C27.2799 20.4356 26.9968 21.1798 26.4308 21.7459L25.9591 22.2176" stroke="white" stroke-width="2" stroke-miterlimit="10"/>
</g>
<path id="Vector_3" d="M34.2714 38.2246C35.4035 37.0715 35.4035 35.2056 34.2504 34.0526L31.7346 31.5368C29.3656 29.1678 29.3656 25.3102 31.7346 22.9412L36.3469 27.5535C37.5314 28.738 38.1289 30.2999 38.1289 31.8513C38.1289 33.4027 37.5314 34.9645 36.3469 36.149L34.3028 38.1931C34.2819 38.2141 34.2714 38.2246 34.2714 38.2246Z" fill="#5D5FEF" stroke="white" stroke-width="2" stroke-miterlimit="10"/>
<g id="Vector_4">
<path d="M32.2478 32.0713L34.2395 34.063C35.3925 35.2161 35.403 37.0715 34.2604 38.235C33.1283 39.3461 31.3254 39.3252 30.2037 38.2036C29.6377 37.6375 29.3547 36.8933 29.3547 36.1595C29.3547 35.4257 29.6377 34.6815 30.2037 34.1154L30.6859 33.6332" fill="#5D5FEF"/>
<path d="M32.2478 32.0713L34.2395 34.063C35.3925 35.2161 35.403 37.0715 34.2604 38.235C33.1283 39.3461 31.3254 39.3252 30.2037 38.2036C29.6377 37.6375 29.3547 36.8933 29.3547 36.1595C29.3547 35.4257 29.6377 34.6815 30.2037 34.1154L30.6859 33.6332" stroke="white" stroke-width="2" stroke-miterlimit="10"/>
</g>
</g>
</g>
</svg>
