<svg width="16" height="16" viewBox="0 0 16 16" fill="none" xmlns="http://www.w3.org/2000/svg">
<g id="Export Icon">
<g id="Group 923">
<path id="Union" fill-rule="evenodd" clip-rule="evenodd" d="M11.1009 5.11257L8.43924 2.83138C8.31497 2.72244 8.15809 2.66671 8.00038 2.66663C7.89247 2.66657 7.78418 2.69257 7.68568 2.74541C7.64179 2.76889 7.60008 2.79757 7.56152 2.83138L4.89984 5.11257C4.62027 5.35217 4.58788 5.77303 4.82748 6.0526C5.06708 6.33216 5.48794 6.36456 5.7675 6.12496L7.33367 4.78268V9.94577C7.33367 10.314 7.63214 10.6124 8.00033 10.6124C8.36852 10.6124 8.667 10.314 8.667 9.94577L8.667 4.78261L10.2333 6.12496C10.5128 6.36456 10.9337 6.33216 11.1733 6.0526C11.4129 5.77303 11.3805 5.35217 11.1009 5.11257ZM4.00033 9.33329C4.00033 8.9651 4.2988 8.66663 4.66699 8.66663H5.66699C6.03518 8.66663 6.33366 8.36815 6.33366 7.99996C6.33366 7.63177 6.03518 7.33329 5.66699 7.33329H4.66699C3.56242 7.33329 2.66699 8.22872 2.66699 9.33329V11.3333C2.66699 12.4379 3.56242 13.3333 4.66699 13.3333H11.3337C12.4382 13.3333 13.3337 12.4379 13.3337 11.3333V9.33329C13.3337 8.22872 12.4382 7.33329 11.3337 7.33329H10.3337C9.96547 7.33329 9.66699 7.63177 9.66699 7.99996C9.66699 8.36815 9.96547 8.66663 10.3337 8.66663H11.3337C11.7018 8.66663 12.0003 8.9651 12.0003 9.33329V11.3333C12.0003 11.7015 11.7018 12 11.3337 12H4.66699C4.2988 12 4.00033 11.7015 4.00033 11.3333V9.33329Z" fill="#0F3659"/>
</g>
</g>
</svg>
